<?xml version="1.0" encoding="UTF-8"?><svg id="Layer_1" xmlns="http://www.w3.org/2000/svg" viewBox="0 0 643.63 331.16"><defs><style>.cls-1{fill:#231f20;}.cls-2{isolation:isolate;}</style></defs><g class="cls-2"><path class="cls-1" d="M0,3.21l4.61-.2c12.84-.8,25.88-1.4,35.71-1.4,29.9,0,50.16,5.22,65.41,16.65,15.45,11.64,23.88,30.7,23.88,54.37,0,24.88-9.23,45.14-26.08,57.78-15.65,11.44-34.51,16.25-65.01,16.25-12.04,0-26.48-.4-38.52-1.2V3.21ZM33.51,117.17c7.22.2,10.43.6,13.84.6,30.7,0,47.15-15.25,47.15-44.14,0-12.64-3.81-24.08-10.43-31.1-7.82-8.23-19.26-12.04-36.32-12.04-4.21,0-7.62.2-14.25.4v86.27Z"/><path class="cls-1" d="M182.78,47.55v71.63c0,24.68-1.81,36.52-7.22,46.75-5.02,9.83-11.64,16.05-25.28,22.87l-28.69-13.64c13.64-6.42,20.26-12.04,24.48-20.67,4.41-8.83,5.82-19.06,5.82-45.95v-60.99h30.9ZM151.88,0h30.9v31.7h-30.9V0Z"/><path class="cls-1" d="M211.87,54.57c13.64-6.42,26.69-9.23,40.93-9.23,15.85,0,26.28,4.21,30.9,12.44,2.61,4.62,3.41,10.63,3.41,23.47v62.8c-13.84,2.01-31.3,3.41-44.14,3.41-25.88,0-37.52-9.03-37.52-29.09,0-21.67,15.45-31.7,53.37-34.91v-6.82c0-5.62-2.81-7.62-10.63-7.62-11.44,0-24.28,3.21-36.32,9.43v-23.88ZM260.22,103.73c-20.47,2.01-27.09,5.22-27.09,13.24,0,6.02,3.81,8.83,12.24,8.83,4.61,0,8.83-.4,14.85-1.4v-20.67Z"/></g><g class="cls-2"><path class="cls-1" d="M312.19,52.37c18.26-4.82,33.31-7.02,48.55-7.02s27.29,3.61,34.11,10.63c6.42,6.62,8.43,13.84,8.43,29.29v60.59h-30.9v-59.39c0-11.84-4.01-16.25-15.05-16.25-4.21,0-8.03.4-14.25,2.21v73.43h-30.9V52.37Z"/></g><g class="cls-2"><path class="cls-1" d="M425.14,162.72c10.83,5.62,21.67,8.23,33.11,8.23,20.26,0,28.89-8.23,28.89-27.89v-.6c-6.02,3.01-12.04,4.21-20.06,4.21-27.09,0-44.34-17.86-44.34-46.15,0-35.11,25.48-54.98,70.62-54.98,13.24,0,25.48,1.41,40.33,4.41v24.28c-8.23-1.6-11.24-2.21-17.46-2.81v3.21l.4,13.04.2,16.85c.2,4.21.2,8.43.4,12.64v8.43c0,26.48-2.21,38.92-8.83,49.16-9.63,15.05-26.28,22.47-49.96,22.47-12.04,0-22.47-1.81-33.31-6.02v-28.49ZM486.54,70.42h-3.21c-6.22-.2-13.04,1.4-18.06,4.41-7.42,4.21-11.24,11.84-11.24,22.67,0,15.45,7.83,24.28,21.47,24.28,4.01,0,7.62-.8,11.64-2.01v-10.63c0-3.61-.2-7.62-.2-11.84l-.2-14.25-.2-10.23v-2.41Z"/></g><g class="cls-2"><path class="cls-1" d="M593.87,44.94c30.9,0,49.76,19.46,49.76,50.96s-19.66,52.57-50.96,52.57-49.96-19.46-49.96-50.76,19.66-52.77,51.16-52.77ZM593.27,123.59c12.04,0,19.06-9.83,19.06-26.89s-6.82-26.89-18.86-26.89-19.46,9.83-19.46,26.89,7.02,26.89,19.26,26.89Z"/></g><g class="cls-2"><path class="cls-1" d="M0,171.81h28.09c5.82,0,9.83,2.21,13.04,7.02l43.74,67.82c6.82,10.43,11.03,18.66,18.46,36.72-3.81-19.26-4.82-28.29-4.82-39.73v-71.83h30.9v143.26h-28.09c-5.82,0-9.83-2.21-13.04-7.02l-43.74-67.82c-7.02-10.63-11.03-18.66-18.46-36.72,3.61,19.26,4.82,28.29,4.82,39.53v72.03H0v-143.26Z"/></g><g class="cls-2"><path class="cls-1" d="M181.77,274.74c1,12.24,10.43,18.86,26.69,18.86,12.24,0,23.47-3.21,32.9-9.43v23.88c-11.84,6.22-24.08,9.23-37.32,9.23-32.9,0-52.17-18.86-52.17-50.96s19.66-51.96,49.56-51.96,45.14,18.26,45.14,50.36c0,1.61,0,4.41-.2,7.83l-.2,2.21h-64.4ZM218.29,253.27c-1-11.24-6.82-17.25-16.85-17.25s-17.66,6.62-19.26,17.25h36.11Z"/></g><g class="cls-2"><path class="cls-1" d="M254.81,315.06c6.82-13.44,19.66-33.71,32.3-50.96l-1.6-2.21-2.81-4.01c-8.43-11.64-16.85-25.48-23.88-38.52l-1.4-2.61h37.32c4.01,9.43,10.03,22.07,15.65,31.9,5.42-9.63,11.24-21.47,15.65-31.9h34.11l-1.4,2.61c-7.62,14.25-16.05,27.69-26.89,42.54l-1.4,2.21,1.4,2.01c7.62,10.83,13.24,19.26,18.26,27.09,5.22,8.63,9.43,15.85,12.64,21.87h-36.52c-5.02-12.24-10.03-22.47-18.46-37.12l-2.01,3.81c-6.42,11.64-10.63,20.06-15.25,30.7l-1.2,2.61h-34.51Z"/><path class="cls-1" d="M367.17,218.76h17.25v-27.49h29.49v27.49h21.67v23.07h-21.67v33.31c0,13.44,2.81,17.05,13.24,17.05,2.01,0,3.61-.4,6.62-1.2v23.27c-6.02,1-11.24,1.61-16.65,1.61-13.64,0-23.27-3.41-28.69-10.03-4.41-5.62-5.42-10.03-5.42-26.68v-37.32h-15.85v-23.07Z"/></g><g class="cls-2"><path class="cls-1" d="M444.11,301.3h13.31v13.76h-13.31v-13.76Z"/><path class="cls-1" d="M479.52,278.22v26.84c0,9.25-.68,13.69-2.71,17.52-1.88,3.68-4.36,6.02-9.47,8.57l-10.75-5.11c5.11-2.41,7.59-4.51,9.17-7.75,1.65-3.31,2.18-7.14,2.18-17.22v-22.86h11.58ZM467.94,260.4h11.58v11.88h-11.58v-11.88Z"/><path class="cls-1" d="M488.02,304.08c4.14,2.03,7.37,2.93,11.2,2.93,3.08,0,4.74-.83,4.74-2.33,0-.98-.6-1.73-1.88-2.26l-4.66-2.18c-7.14-3.31-9.4-6.02-9.4-11.28,0-7.22,5.87-11.66,15.49-11.66,3.68,0,6.77.6,10.38,2.11v9.17c-3.46-1.65-6.24-2.41-9.55-2.41s-5.04.9-5.04,2.48c0,.53.23,1.05.6,1.43.3.3.75.6,1.28.83,1.13.53,2.63,1.28,4.59,2.18,7.22,3.31,9.47,6.02,9.47,11.05,0,7.75-5.34,11.73-15.64,11.73-4.36,0-7.9-.68-11.58-2.26v-9.55Z"/></g></svg>